<?xml version="1.0" encoding="iso-8859-1"?>
<!-- Generator: Adobe Illustrator 21.0.0, SVG Export Plug-In . SVG Version: 6.00 Build 0)  -->
<svg xmlns="http://www.w3.org/2000/svg" xmlns:xlink="http://www.w3.org/1999/xlink" version="1.1" id="Capa_1" x="0px" y="0px" viewBox="0 0 512 512" style="enable-background:new 0 0 512 512;" xml:space="preserve" width="512" height="512">
<g>
	<path style="fill:#78777F;" d="M416.841,472.301l46.228-12.243c28.353-7.509,45.801-35.864,39.722-64.552l-21.544-101.664   c-12.5-58.991-60.067-103.907-119.466-113.186c-7.073-1.105-204.487-1.105-211.561,0c-59.399,9.279-106.966,54.195-119.466,113.186   L9.21,395.506c-6.079,28.688,11.369,57.043,39.722,64.552l46.228,12.243H416.841z"/>
	<path style="fill:#464550;" d="M502.79,395.506l-21.544-101.664c-12.5-58.991-60.067-103.907-119.466-113.186   c-3.537-0.552-54.658-0.828-105.78-0.828v292.474h160.841l46.228-12.243C491.421,452.548,508.869,424.194,502.79,395.506z"/>
	<path style="fill:#3C3A41;" d="M187.698,260.051h136.605c43.108-49.8,57.652-92.456,58.318-94.481   c1.02-3.049,1.02-6.349,0.02-9.408c-0.51-1.54-12.62-38.192-33.09-75.415c-59.209-107.726-127.963-107.596-187.1,0   c-20.47,37.223-32.58,73.875-33.09,75.415c-1,3.059-1,6.359,0.02,9.408C130.046,167.595,144.589,210.251,187.698,260.051z"/>
	<path style="fill:#2B292C;" d="M382.64,156.162C363.783,99.259,316.958,0,256,0.002v260.049h68.302   c43.108-49.8,57.652-92.456,58.318-94.481C383.64,162.521,383.64,159.221,382.64,156.162z"/>
	<path style="fill:#FEB655;" d="M181.108,129.328c-0.405,3.443-0.746,0.351,11.855,59.24c6.32,29.532,32.832,50.966,63.037,50.966   s56.717-21.434,63.037-50.966c12.63-59.023,12.256-55.82,11.855-59.237C291.744,117.63,220.32,117.611,181.108,129.328z"/>
	<path style="fill:#FD9A2B;" d="M330.892,129.331c-19.58-5.852-47.233-8.782-74.892-8.783v118.986   c30.205,0,56.717-21.434,63.037-50.966C331.667,129.545,331.293,132.748,330.892,129.331z"/>
	<path style="fill:#7A86E8;" d="M84,446.013v30.994C84,496.333,99.67,512,119,512h274c19.33,0,35-15.667,35-34.993v-30.994H84z"/>
	<path style="fill:#4B5ADD;" d="M256,446.013V512h137c19.33,0,35-15.667,35-34.993v-30.994H256z"/>
	<path style="fill:#E1E4F9;" d="M403,255.052H109c-13.807,0-25,11.191-25,24.995v170.965h344V280.047   C428,266.243,416.807,255.052,403,255.052z"/>
	<path style="fill:#D6DAF6;" d="M428,280.047c0-13.804-11.193-24.995-25-24.995H256v195.96h172V280.047z"/>
	<path style="fill:#7A86E8;" d="M282,338.035h-52c-8.284,0-15,6.714-15,14.997s6.716,14.997,15,14.997h52   c8.284,0,15-6.714,15-14.997S290.284,338.035,282,338.035z"/>
	<path style="fill:#4B5ADD;" d="M282,338.035h-26v29.994h26c8.284,0,15-6.714,15-14.997S290.284,338.035,282,338.035z"/>
	<path style="fill:#78777F;" d="M376.01,181.567c-7.31-48.97-64.28-54.539-120.01-56.339c-55.73,1.8-112.71,7.379-120.01,56.349   c-7.391-15.924-8.413-19.96-6.63-25.415c0.51-1.54,12.62-38.192,33.09-75.415c59.14-107.598,127.89-107.728,187.1,0   c20.47,37.223,32.58,73.875,33.09,75.415C384.382,161.492,383.55,165.339,376.01,181.567z"/>
	<path style="fill:#464550;" d="M382.64,156.162C363.783,99.259,316.958-0.002,256,0.001v125.228   c55.73,1.8,112.7,7.369,120.01,56.339C383.55,165.339,384.382,161.492,382.64,156.162z"/>
</g>















</svg>
