<svg height="512pt" viewBox="0 -19 512 512" width="512pt" xmlns="http://www.w3.org/2000/svg"><path d="m30 356.890625h30v54.980469h-30zm0 0" fill="#d0cef0"/><path d="m452 355.582031h30v54.984375h-30zm0 0" fill="#b6b4e8"/><path d="m512 45.675781v308.390625c0 9.828125-7.988281 17.816406-17.820312 17.816406h-476.359376c-9.832031 0-17.820312-7.988281-17.820312-17.816406v-308.390625c0-25.183593 20.5-45.675781 45.691406-45.675781h420.617188c25.191406 0 45.691406 20.492188 45.691406 45.675781zm0 0" fill="#e9efff"/><path d="m512 45.675781v308.390625c0 9.828125-7.988281 17.816406-17.820312 17.816406h-239.210938v-371.882812h211.339844c25.191406 0 45.691406 20.492188 45.691406 45.675781zm0 0" fill="#d0cef0"/><path d="m512 406.8125v18.953125c0 26.089844-21.148438 47.234375-47.25 47.234375h-417.5c-26.101562 0-47.25-21.144531-47.25-47.234375v-18.953125c0-3.910156 3.171875-7.089844 7.089844-7.089844h157.898437c3.921875 0 7.089844 3.179688 7.089844 7.089844v10.84375c0 3.921875 3.183594 7.089844 7.09375 7.089844h150.558594c3.910156 0 7.089843-3.167969 7.089843-7.089844v-10.84375c0-3.910156 3.167969-7.089844 7.089844-7.089844h161c3.917969 0 7.089844 3.179688 7.089844 7.089844zm0 0" fill="#00429b"/><path d="m448.261719 170.945312c0 8.277344-6.722657 14.996094-15 14.996094h-8.933594c.042969 1.128906.050781 2.257813.050781 3.398438 0 39.238281-31.71875 71.148437-70.71875 71.148437-23.589844 0-46.300781-10.449219-63.960937-29.421875-6.371094-6.859375-11.71875-14.425781-15.878907-22.503906-2.320312-4.507812-4.242187-9.136719-5.699218-13.746094-.949219-2.957031-1.699219-5.925781-2.261719-8.875h-21.78125c-.566406 2.949219-1.316406 5.917969-2.257813 8.875-1.460937 4.609375-3.378906 9.226563-5.710937 13.746094-4.160156 8.078125-9.5 15.644531-15.878906 22.503906-17.652344 18.972656-40.371094 29.421875-63.960938 29.421875-38.988281 0-70.71875-31.910156-70.71875-71.148437 0-1.140625.019531-2.277344.058594-3.398438h-8.929687c-8.289063 0-15-6.71875-15-14.996094 0-8.285156 6.710937-14.996093 15-14.996093h15.46875c.390624-.867188.800781-1.726563 1.222656-2.578125 11.347656-22.683594 33.6875-35.179688 62.898437-35.179688 3.300781 0 6.492188.023438 9.480469.0625 17.640625.257813 35.890625 1.308594 49.828125 7.226563 4.773437 2.019531 9.050781 4.589843 12.722656 7.636719 5.539063 4.589843 9.800781 10.347656 12.660157 17.105468.847656 1.992188 1.570312 3.851563 2.179687 5.730469h23.667969c.601562-1.890625 1.320312-3.75 2.160156-5.738281 2.859375-6.75 7.121094-12.507813 12.671875-17.097656 3.667969-3.046876 7.949219-5.617188 12.710937-7.636719 13.9375-5.917969 32.1875-6.96875 49.839844-7.226563 2.980469-.039062 6.167969-.0625 9.46875-.0625 29.21875 0 51.558594 12.496094 62.898438 35.179688.429687.851562.832031 1.710937 1.222656 2.578125h15.480469c8.277343 0 15 6.707031 15 14.996093zm0 0" fill="#00429b"/><g fill="#002659"><path d="m512 406.8125v18.953125c0 26.089844-21.148438 47.234375-47.25 47.234375h-209.78125v-48.253906h74.761719c3.910156 0 7.089843-3.171875 7.089843-7.089844v-10.847656c0-3.90625 3.167969-7.085938 7.089844-7.085938h161c3.917969 0 7.089844 3.179688 7.089844 7.089844zm0 0"/><path d="m448.261719 170.945312c0 8.277344-6.722657 14.996094-15 14.996094h-8.933594c.042969 1.128906.050781 2.257813.050781 3.398438 0 39.238281-31.71875 71.148437-70.71875 71.148437-23.589844 0-46.300781-10.449219-63.960937-29.421875-6.371094-6.859375-11.71875-14.425781-15.878907-22.503906-2.320312-4.507812-4.242187-9.136719-5.699218-13.746094-.949219-2.957031-1.699219-5.925781-2.261719-8.875h-10.890625v-29.992187h11.839844c.601562-1.886719 1.320312-3.75 2.160156-5.738281 2.859375-6.746094 7.121094-12.503907 12.671875-17.09375 3.667969-3.050782 7.949219-5.617188 12.710937-7.636719 13.9375-5.917969 32.1875-6.96875 49.839844-7.230469 2.980469-.039062 6.167969-.058594 9.46875-.058594 29.21875 0 51.558594 12.496094 62.898438 35.179688.429687.847656.832031 1.707031 1.222656 2.578125h15.480469c8.277343 0 15 6.707031 15 14.996093zm0 0"/></g></svg>